<?xml version="1.0" encoding="utf-8"?>
<!-- Generator: Adobe Illustrator 24.3.0, SVG Export Plug-In . SVG Version: 6.00 Build 0)  -->
<svg version="1.1" id="Layer_1" xmlns="http://www.w3.org/2000/svg" xmlns:xlink="http://www.w3.org/1999/xlink" x="0px" y="0px"
	 viewBox="0 0 79.4 53.2" style="enable-background:new 0 0 79.4 53.2;" xml:space="preserve">
<style type="text/css">
	.st0{fill:#FFFFFF;}
</style>
<g>
	<path class="st0" d="M24.3,0H9.2C4.5,0,0,4.4,0,8.9v5.9h9.2V1.5h15.2v14.7l-9,10.3L0,44.3v8.9h9.2h24.3v-8.9H12.2l15-17.7h0
		l6.3-7.4V8.9C33.5,4.4,28.9,0,24.3,0z M0.7,51.1v-5.2L2,48.7L0.7,51.1z M32.3,45l-3.5,3.4H3.9l7.7-3.4H32.3z M2.4,48.1l-1.6-3.6
		l15.5-17.9h4.6L2.4,48.1z"/>
	<path class="st0" d="M70.2,0H52c-4.5,0-9.2,4.4-9.2,8.8v17.8v17.7c0,4.5,4.5,8.9,9.1,8.9h18.3c4.6,0,9.1-4.3,9.1-8.9l0.1-17.7l0,0
		v-1.5v-7.4V8.8C79.4,4.3,74.9,0,70.2,0z M70.2,44.3H52V26.6l0,0V8.8h18.2v17.8V44.3z M73.4,26.6V5.7H48.8v20.9H46V4.4V3.1h30.1
		v23.5H73.4z"/>
</g>
</svg>
