<?xml version="1.0" encoding="utf-8"?>
<!-- Generator: Adobe Illustrator 24.3.0, SVG Export Plug-In . SVG Version: 6.00 Build 0)  -->
<svg version="1.1" id="Layer_1" xmlns="http://www.w3.org/2000/svg" xmlns:xlink="http://www.w3.org/1999/xlink" x="0px" y="0px"
	 viewBox="0 0 765.4 768" style="enable-background:new 0 0 765.4 768;" xml:space="preserve">
<style type="text/css">
	.st0{fill:#FFFFFF;}
</style>
<path class="st0" d="M348.9,346.4v-56.3c0-24.4-25.2-48.5-49.9-48.5h-82.8c-25.2,0-49.9,24-49.9,48.5v32.3h49.9v-72.5H299v80.4
	l-48.9,56.3h0l-83.8,96.5v48.5h49.9h132.7v-48.5H232.8l82-96.5L348.9,346.4z M170.1,520.4v-28.6l6.8,15.3L170.1,520.4z M342.5,486.9
	l-19.2,18.7H187.6l41.8-18.7H342.5z M179.5,503.8l-9-19.9l84.4-97.3h25L179.5,503.8z"/>
<g>
	<path class="st0" d="M122.8,140.1c0,0,3.2-1.2,6.5,1.6c2.3,1.9,9.1,7.8,9.1,7.8c3.4,2.9,3.9,9.2,1,12.5l-17.9,20.9L80.7,148
		l17.9-20.9c2.9-3.4,9.2-3.8,12.6-0.9c0,0,6.8,5.8,9,7.7C123.6,136.9,122.8,140.1,122.8,140.1z M93.4,147l10.2,8.7l12.1-14.1
		l-10.2-8.7L93.4,147z M122.4,147.5l-12.1,14.1l10.2,8.7l12.1-14.1L122.4,147.5z"/>
	<path class="st0" d="M227.4,81l-16,8.8l2.1,11.3l-8.4,4.6l-10.2-55.6l7.8-4.3l41.5,38.4l-8.4,4.6L227.4,81z M220.7,74.8L206,61.1
		l3.7,19.8L220.7,74.8z"/>
	<path class="st0" d="M350.4,47l1.2,8.3l-32.4,4.8l-7.9-53l8.9-1.3l6.7,44.8L350.4,47z"/>
	<path class="st0" d="M477.3,21.3l-14.6-3l-9,43.7l-8.8-1.8l9-43.7l-14.6-3l1.8-8.8l38,7.8L477.3,21.3z"/>
	<path class="st0" d="M543.3,96l26.8-46.5l7.8,4.5l-26.8,46.5L543.3,96z"/>
	<path class="st0" d="M635.5,172.4L623.7,159c-3-3.4-2.6-9.7,0.7-12.6l26.8-23.6c3.3-2.9,9.7-2.6,12.6,0.8l11.8,13.4
		c3,3.4,2.7,9.6-0.8,12.6l-5.6,4.9l-5.9-6.7l5.6-4.9l-11.8-13.4l-26.8,23.6l11.8,13.4l5.6-5l5.9,6.7l-5.6,5
		C644.7,176.2,638.4,175.7,635.5,172.4z"/>
	<path class="st0" d="M722.8,381.4l-0.6-18.3l-11-3.3l-0.3-9.6l54.1,16.2l0.3,9l-53,19.5l-0.3-9.6L722.8,381.4z M731.4,378.3
		l18.9-6.9l-19.3-5.8L731.4,378.3z"/>
	<path class="st0" d="M690.8,499.3l25.2-4.6l2.1-6.2l-21.2-7.2l2.9-8.4l50.7,17.3l-9.1,26.7c-1.4,4.2-7.1,7-11.4,5.6l-12.7-4.3
		c-4.2-1.4-6.9-7.1-5.5-11.3l0.8-2.2l-25.3,4.9L690.8,499.3z M726.6,491.3l-6.3,18.3L733,514l6.3-18.3L726.6,491.3z"/>
	<path class="st0" d="M658.8,635.8l9.5-11.5l-34.4-28.4l5.7-6.9l34.4,28.4l9.5-11.4l6.9,5.7l-24.7,29.9L658.8,635.8z"/>
	<path class="st0" d="M437.4,707.7l17.5-3.4c4.4-0.9,9.7,2.6,10.5,7l6.9,35.1c0.9,4.4-2.6,9.7-7.1,10.5l-17.5,3.4
		c-4.5,0.9-9.6-2.6-10.5-7.1l-1.4-7.3l8.8-1.7l1.4,7.3l17.5-3.4l-6.9-35.1l-17.5,3.4l1.4,7.4l-8.8,1.7l-1.4-7.4
		C429.5,713.8,433.1,708.6,437.4,707.7z"/>
	<path class="st0" d="M328.4,752.8l2.2-13.2l-14.7-2.5l1.5-8.8l14.7,2.5l2.2-13.2l-23.6-4l1.5-8.8l32.3,5.5l-8.9,52.9l-32.3-5.5
		l1.5-8.8L328.4,752.8z"/>
	<path class="st0" d="M174.5,704.6l27-46.4l7.8,4.5l-0.5,39.4l17.3-29.7l7.8,4.5l-27,46.4l-7.7-4.5l1.2-40.6l-18,30.9L174.5,704.6z"
		/>
	<path class="st0" d="M81.1,604.1l9.4,11.6l34.6-28.2l5.7,7l-34.6,28.2l9.4,11.5l-6.9,5.7l-24.5-30L81.1,604.1z"/>
	<path class="st0" d="M31.9,511.2l12.7-4.4l-4.9-14.1l8.5-2.9L53,504l12.7-4.4L57.9,477l8.4-2.9l10.7,31l-50.7,17.5l-10.7-31
		l8.5-2.9L31.9,511.2z"/>
	<path class="st0" d="M54.4,363.8l-22.7,11.9l-0.2,6.6l22.4,0.7l-0.3,8.9L0,390.2L0.8,362c0.1-4.4,4.7-8.8,9.2-8.7l13.4,0.4
		c4.4,0.1,8.7,4.8,8.6,9.2l-0.1,2.4l22.7-12.1L54.4,363.8z M22.6,382l0.6-19.4l-13.4-0.4l-0.6,19.4L22.6,382z"/>
</g>
<path class="st0" d="M549.2,241.6h-99.4c-24.8,0-49.9,24-49.9,48v97h-0.1v96.5c0,24.4,24.7,48.5,49.5,48.5h99.9
	c25.2,0,49.9-23.6,49.9-48.5v-96.5v-8.3v-40.2v-48.5C599.1,265.2,574.8,241.6,549.2,241.6z M549.2,386.6v96.5h-99.5v-96.5v-96.9
	h99.5V386.6z M581.6,386.6h-14.9V272.7H432.2v113.9h-14.9v-121v-7h164.3V386.6z"/>
</svg>
